<?xml version="1.0" standalone="no"?><!DOCTYPE svg PUBLIC "-//W3C//DTD SVG 1.1//EN" "http://www.w3.org/Graphics/SVG/1.1/DTD/svg11.dtd"><svg t="1680027967708" class="icon" viewBox="0 0 1024 1024" version="1.1" xmlns="http://www.w3.org/2000/svg" p-id="1066" xmlns:xlink="http://www.w3.org/1999/xlink" width="200" height="200"><path d="M371.456 496.128H152.832c-51.2 0-92.928-41.728-92.928-92.928V184.832c0-51.2 41.728-92.928 92.928-92.928h218.624c51.2 0 92.928 41.728 92.928 92.928v218.624c-0.256 50.944-41.728 92.672-92.928 92.672zM371.456 964.096H152.832c-51.2 0-92.928-41.728-92.928-92.928V652.8c0-51.2 41.728-92.928 92.928-92.928h218.624c51.2 0 92.928 41.728 92.928 92.928v218.624c-0.256 51.2-41.728 92.672-92.928 92.672zM673.792 494.592L530.176 350.72c-33.536-33.792-33.536-88.576 0.256-122.112l144.128-143.616c33.792-33.536 88.576-33.536 122.112 0.256l143.616 144.128c33.536 33.792 33.536 88.576-0.256 122.112l-144.128 143.616c-33.792 33.536-88.576 33.28-122.112-0.512zM834.304 964.096l-218.624-0.512c-51.2 0-92.672-41.728-92.672-92.928l0.512-218.624c0-51.2 41.728-92.672 92.928-92.672l218.624 0.512c51.2 0 92.672 41.728 92.672 92.928l-0.512 218.624c0 51.456-41.728 92.928-92.928 92.672z" fill="#5396FF" p-id="1067"></path></svg>