<?xml version="1.0" standalone="no"?><!DOCTYPE svg PUBLIC "-//W3C//DTD SVG 1.1//EN" "http://www.w3.org/Graphics/SVG/1.1/DTD/svg11.dtd"><svg t="1680028074179" class="icon" viewBox="0 0 1024 1024" version="1.1" xmlns="http://www.w3.org/2000/svg" p-id="1205" xmlns:xlink="http://www.w3.org/1999/xlink" width="200" height="200"><path d="M509.696 495.104c-124.672 0-226.048-101.376-226.048-226.048s101.376-226.048 226.048-226.048 226.048 101.376 226.048 226.048-101.632 226.048-226.048 226.048zM837.888 632.32c-92.672-56.32-208.128-87.04-325.12-87.04s-232.448 30.976-325.12 87.04c-89.088 54.016-142.08 123.648-142.08 186.112 0 63.488 50.688 108.544 150.528 133.376 73.728 18.432 177.408 27.392 316.672 27.392 139.264 0 242.944-8.96 316.672-27.392 99.84-24.832 150.528-69.632 150.528-133.376 0.256-62.72-52.992-132.096-142.08-186.112z m-48.128 133.376c-5.888 8.192-15.36 12.544-24.832 12.544-6.4 0-12.544-2.048-18.176-5.888-40.192-29.44-107.264-51.968-179.456-60.16-16.896-1.792-28.928-17.152-27.136-34.048 1.792-16.896 17.152-28.928 34.048-27.136 82.176 9.216 160.256 36.096 208.64 71.424 13.824 10.24 16.896 29.44 6.912 43.264z" fill="#5396FF" p-id="1206"></path></svg>